# Blender v2.76 (sub 0) OBJ File: 'airhockeytable.blend'
# www.blender.org
mtllib airhockeytable.mtl
o Cube.001
v 1.557342 -0.725302 12.344303
v 0.000002 -0.725293 -12.344301
v -0.000002 -0.725302 12.344299
v 6.229380 -0.725302 12.344305
v 6.229387 -0.725293 -12.344299
v 4.672041 -0.725293 -12.344299
v 3.114694 -0.725293 -12.344299
v 4.672034 -0.725302 12.344305
v 1.557348 -0.725293 -12.344301
v -1.557344 -0.725293 -12.344301
v -3.114695 -0.725302 12.344296
v -3.114690 -0.725293 -12.344304
v -4.672036 -0.725293 -12.344304
v -6.229381 -0.725293 -12.344306
v -6.229383 -0.725302 12.344294
v -4.672040 -0.725302 12.344294
v -1.557348 -0.725302 12.344297
v 3.114687 -0.725302 12.344303
v 7.194518 -0.975868 -14.256838
v 7.194518 -0.975878 14.256828
v -7.194517 -0.975878 14.256826
v 6.229380 -0.541262 12.344305
v 6.229387 0.747034 -12.344299
v 6.229380 0.747025 12.344305
v -0.000002 0.747025 12.344299
v -1.557348 0.747025 12.344297
v -6.229383 0.747025 12.344294
v -6.229381 0.747034 -12.344306
v -7.194512 -0.975868 -14.256844
v 0.000002 0.747034 -12.344301
v 6.229387 0.194910 -12.344299
v 6.229380 0.010862 12.344305
v 6.229380 0.194901 12.344305
v -6.229383 0.194901 12.344294
v -6.229381 0.010870 -12.344306
v -6.229381 0.194910 -12.344306
v -6.229381 -0.541254 -12.344306
v 3.114694 0.562992 -12.344299
v 3.114694 0.378951 -12.344299
v 4.672041 0.378951 -12.344299
v -0.000002 0.194901 12.344299
v -0.000002 0.010862 12.344299
v -1.557348 0.010862 12.344297
v 4.672034 0.010862 12.344305
v 3.114687 0.194901 12.344303
v 3.114687 0.010862 12.344303
v 1.557342 0.010862 12.344303
v 3.114687 0.562984 12.344303
v 3.114687 0.378942 12.344303
v 1.557342 0.378942 12.344303
v 6.229380 0.562984 12.344305
v 6.229380 0.378942 12.344305
v 4.672034 0.378942 12.344305
v -3.114695 0.194901 12.344296
v -3.114695 0.010862 12.344296
v -4.672040 0.010862 12.344294
v -3.114695 0.562984 12.344296
v -3.114695 0.378942 12.344296
v -4.672040 0.378942 12.344294
v -0.000002 0.562984 12.344299
v -0.000002 0.378942 12.344299
v -1.557348 0.378942 12.344297
v -3.114695 -0.541262 12.344296
v -3.114695 -0.173180 12.344296
v -3.114695 -0.357221 12.344296
v -4.672040 -0.357221 12.344294
v 3.114694 0.194910 -12.344299
v 3.114694 0.010870 -12.344299
v 4.672041 0.010870 -12.344299
v 3.114687 -0.541262 12.344303
v 3.114687 -0.173180 12.344303
v 3.114687 -0.357221 12.344303
v 1.557342 -0.357221 12.344303
v 6.229380 -0.173180 12.344305
v 6.229380 -0.357221 12.344305
v 4.672034 -0.357221 12.344305
v 4.672034 -0.173180 12.344305
v 3.114694 -0.173171 -12.344299
v 3.114694 -0.357212 -12.344299
v 4.672041 -0.357212 -12.344299
v 1.557342 -0.173180 12.344303
v 3.114694 -0.541254 -12.344299
v -4.672036 0.010870 -12.344304
v 1.557342 -0.541262 12.344303
v -1.557348 -0.173180 12.344297
v -1.557348 -0.357221 12.344297
v 0.000002 0.194910 -12.344301
v 0.000002 0.010870 -12.344301
v 1.557348 0.010870 -12.344301
v -4.672040 -0.173180 12.344294
v -6.229383 -0.357221 12.344294
v -6.229383 -0.173180 12.344294
v -4.672040 -0.541262 12.344294
v -6.229383 -0.541262 12.344294
v -1.557348 0.562984 12.344297
v -4.672040 0.562984 12.344294
v -6.229383 0.378942 12.344294
v -4.672040 0.747025 12.344294
v -6.229383 0.562984 12.344294
v -3.114695 0.747025 12.344296
v -4.672040 0.194901 12.344294
v -6.229383 0.010862 12.344294
v 4.672034 0.562984 12.344305
v 4.672034 0.747025 12.344305
v 1.557342 0.562984 12.344303
v 1.557342 0.747025 12.344303
v 3.114687 0.747025 12.344303
v 1.557342 0.194901 12.344303
v 4.672034 0.194901 12.344305
v -1.557348 0.194901 12.344297
v -1.557348 -0.541262 12.344297
v 4.672034 -0.541262 12.344305
v 0.000002 0.562992 -12.344301
v 0.000002 0.378951 -12.344301
v 1.557348 0.378951 -12.344301
v -3.114690 0.194910 -12.344304
v -3.114690 0.010870 -12.344304
v -1.557344 0.010870 -12.344301
v -3.114690 0.562992 -12.344304
v -3.114690 0.378951 -12.344304
v -1.557344 0.378951 -12.344301
v -6.229381 0.562992 -12.344306
v -6.229381 0.378951 -12.344306
v -4.672036 0.378951 -12.344304
v -3.114690 -0.541254 -12.344304
v -3.114690 -0.173171 -12.344304
v -3.114690 -0.357212 -12.344304
v -1.557344 -0.357212 -12.344301
v -6.229381 -0.173171 -12.344306
v -6.229381 -0.357212 -12.344306
v -4.672036 -0.357212 -12.344304
v -4.672036 -0.173171 -12.344304
v -1.557344 -0.173171 -12.344301
v -1.557344 -0.541254 -12.344301
v -4.672036 0.562992 -12.344304
v -4.672036 0.747034 -12.344304
v -1.557344 0.562992 -12.344301
v -1.557344 0.747034 -12.344301
v -3.114690 0.747034 -12.344304
v -1.557344 0.194910 -12.344301
v 1.557348 0.562992 -12.344301
v 1.557348 0.747034 -12.344301
v 1.557348 -0.541254 -12.344301
v 1.557348 -0.357212 -12.344301
v 1.557348 0.194910 -12.344301
v -4.672036 0.194910 -12.344304
v 4.672041 -0.541254 -12.344299
v 6.229387 -0.541254 -12.344299
v 4.672041 -0.173171 -12.344299
v 6.229387 -0.357212 -12.344299
v 6.229387 -0.173171 -12.344299
v 1.557348 -0.173171 -12.344301
v 4.672041 0.194910 -12.344299
v 6.229387 0.010870 -12.344299
v 4.672041 0.562992 -12.344299
v 6.229387 0.378951 -12.344299
v 4.672041 0.747034 -12.344299
v 6.229387 0.562992 -12.344299
v 3.114694 0.747034 -12.344299
v -4.672036 -0.541254 -12.344304
vt 0.419169 0.070358
vt 0.338704 0.933735
vt 0.338704 0.070358
vt 0.660566 0.070358
vt 0.660566 0.933735
vt 0.580101 0.933735
vt 0.499635 0.933735
vt 0.580101 0.070358
vt 0.419169 0.933735
vt 0.258238 0.933735
vt 0.177773 0.070359
vt 0.177773 0.933735
vt 0.097307 0.933735
vt 0.016842 0.933735
vt 0.016842 0.070359
vt 0.097307 0.070359
vt 0.258238 0.070359
vt 0.499635 0.070358
vt 0.884346 0.287858
vt 0.884346 0.744037
vt 0.684123 0.744037
vt 0.939083 0.811444
vt 0.934498 0.811444
vt 0.934498 0.766843
vt 0.813623 0.152611
vt 0.813623 0.859660
vt 0.769450 0.914432
vt 0.886860 0.715963
vt 0.886860 0.671362
vt 0.934498 0.509921
vt 0.725277 0.859660
vt 0.725277 0.152611
vt 0.769450 0.097838
vt 0.886860 0.303880
vt 0.934498 0.097838
vt 0.827355 0.097838
vt 0.831932 0.804888
vt 0.827355 0.804888
vt 0.873127 0.804887
vt 0.868550 0.097838
vt 0.873128 0.097838
vt 0.939083 0.454641
vt 0.934499 0.454641
vt 0.934499 0.410041
vt 0.966588 0.187039
vt 0.962004 0.187039
vt 0.962004 0.142439
vt 0.957420 0.633043
vt 0.952835 0.633043
vt 0.952835 0.588442
vt 0.957420 0.811444
vt 0.952835 0.811444
vt 0.952835 0.766843
vt 0.957420 0.722243
vt 0.952835 0.722243
vt 0.952835 0.677643
vt 0.966588 0.722243
vt 0.962004 0.722243
vt 0.962004 0.677643
vt 0.966588 0.811444
vt 0.962004 0.811444
vt 0.962004 0.766843
vt 0.957420 0.543842
vt 0.952835 0.543842
vt 0.952835 0.499241
vt 0.966588 0.543842
vt 0.962004 0.543842
vt 0.962004 0.499241
vt 0.966588 0.633043
vt 0.962004 0.633043
vt 0.962004 0.588442
vt 0.939083 0.543842
vt 0.934498 0.543842
vt 0.934498 0.499241
vt 0.948251 0.543842
vt 0.943667 0.543842
vt 0.943667 0.499241
vt 0.957420 0.187039
vt 0.952835 0.187039
vt 0.952835 0.142439
vt 0.939083 0.722243
vt 0.934498 0.722243
vt 0.934498 0.677643
vt 0.948251 0.722243
vt 0.943667 0.722243
vt 0.943667 0.677643
vt 0.948251 0.811444
vt 0.943667 0.811444
vt 0.943667 0.766843
vt 0.948251 0.766843
vt 0.948251 0.187039
vt 0.943667 0.187039
vt 0.943667 0.142439
vt 0.948251 0.677643
vt 0.939083 0.187039
vt 0.934498 0.187039
vt 0.934498 0.142439
vt 0.957420 0.454641
vt 0.952835 0.454641
vt 0.952835 0.410041
vt 0.939083 0.677643
vt 0.948251 0.588442
vt 0.943667 0.588442
vt 0.957420 0.276240
vt 0.952835 0.276240
vt 0.952835 0.231639
vt 0.948251 0.499241
vt 0.943667 0.454641
vt 0.948251 0.454641
vt 0.939083 0.499241
vt 0.966588 0.588442
vt 0.971172 0.588442
vt 0.971172 0.633043
vt 0.966588 0.499241
vt 0.962004 0.454641
vt 0.971172 0.499241
vt 0.966588 0.454641
vt 0.971172 0.543842
vt 0.957420 0.499241
vt 0.966588 0.766843
vt 0.971172 0.766843
vt 0.971172 0.811444
vt 0.966588 0.677643
vt 0.971172 0.677643
vt 0.971172 0.722243
vt 0.957420 0.677643
vt 0.957420 0.766843
vt 0.957420 0.588442
vt 0.939083 0.588442
vt 0.934498 0.588442
vt 0.939083 0.766843
vt 0.966588 0.276240
vt 0.962004 0.276240
vt 0.962004 0.231639
vt 0.957420 0.365441
vt 0.952835 0.365441
vt 0.952835 0.320840
vt 0.966588 0.365441
vt 0.962004 0.365441
vt 0.962004 0.320840
vt 0.962004 0.410041
vt 0.939083 0.365441
vt 0.934499 0.365441
vt 0.934499 0.320840
vt 0.948251 0.365441
vt 0.943667 0.365441
vt 0.943667 0.320840
vt 0.943667 0.410041
vt 0.948251 0.410041
vt 0.948251 0.320840
vt 0.939083 0.320840
vt 0.966588 0.410041
vt 0.971172 0.410041
vt 0.971172 0.454641
vt 0.966588 0.320840
vt 0.971172 0.320840
vt 0.971172 0.365441
vt 0.957420 0.320840
vt 0.966588 0.231639
vt 0.971172 0.231639
vt 0.971172 0.276240
vt 0.939083 0.231639
vt 0.934498 0.231639
vt 0.943667 0.231639
vt 0.957420 0.231639
vt 0.957420 0.410041
vt 0.939083 0.142439
vt 0.939083 0.097838
vt 0.948251 0.142439
vt 0.943667 0.097838
vt 0.948251 0.097838
vt 0.948251 0.231639
vt 0.957420 0.142439
vt 0.952835 0.097838
vt 0.957420 0.097838
vt 0.966588 0.142439
vt 0.962004 0.097838
vt 0.971172 0.142439
vt 0.966588 0.097838
vt 0.971172 0.187039
vt 0.939083 0.410041
vt 0.684123 0.287858
vt 0.769450 0.097838
vt 0.934498 0.922004
vt 0.886860 0.849764
vt 0.886860 0.805163
vt 0.886860 0.894364
vt 0.886860 0.582162
vt 0.886860 0.537562
vt 0.886860 0.626762
vt 0.886860 0.760563
vt 0.886860 0.170079
vt 0.886860 0.125478
vt 0.886860 0.259280
vt 0.886860 0.482281
vt 0.886860 0.437681
vt 0.886860 0.393080
vt 0.886860 0.348480
vt 0.886860 0.214679
vt 0.818200 0.804888
vt 0.813623 0.804888
vt 0.813623 0.097838
vt 0.818200 0.097838
vt 0.822777 0.097838
vt 0.831932 0.097838
vt 0.836509 0.097838
vt 0.836509 0.804888
vt 0.841087 0.097838
vt 0.845664 0.097838
vt 0.845664 0.804888
vt 0.850241 0.097838
vt 0.850241 0.804888
vt 0.841087 0.804888
vt 0.822778 0.804888
vt 0.882282 0.097838
vt 0.886860 0.097838
vt 0.886859 0.804887
vt 0.882282 0.804887
vt 0.877705 0.804887
vt 0.868550 0.804887
vt 0.863973 0.804887
vt 0.863973 0.097838
vt 0.859396 0.804887
vt 0.854818 0.804887
vt 0.854818 0.097838
vt 0.859396 0.097838
vt 0.877705 0.097838
vt 0.971172 0.097838
vn -0.000000 1.000000 0.000000
vn 0.000000 -1.000000 -0.000000
vn 0.000000 0.000000 -1.000000
vn 0.872400 0.488700 0.000000
vn -0.000000 0.743000 0.669300
vn -0.872400 0.488700 0.000000
vn 0.000000 0.743000 -0.669300
vn -1.000000 0.000000 -0.000000
vn 1.000000 0.000000 0.000000
vn -0.000000 0.000000 1.000000
usemtl Material.001
s 1
f 1/1/1 2/2/1 3/3/1
f 4/4/1 5/5/1 6/6/1
f 7/7/1 8/8/1 6/6/1
f 4/4/1 6/6/1 8/8/1
f 9/9/1 2/2/1 1/1/1
f 3/3/1 2/2/1 10/10/1
f 11/11/1 12/12/1 13/13/1
f 14/14/1 15/15/1 16/16/1
f 16/16/1 11/11/1 13/13/1
f 10/10/1 12/12/1 17/17/1
f 7/7/1 18/18/1 8/8/1
f 10/10/1 17/17/1 3/3/1
f 9/9/1 18/18/1 7/7/1
f 17/17/1 12/12/1 11/11/1
f 13/13/1 14/14/1 16/16/1
f 1/1/1 18/18/1 9/9/1
f 19/19/2 20/20/2 21/21/2
f 22/22/3 4/23/3 8/24/3
f 23/25/4 24/26/4 20/27/4
f 25/28/5 26/29/5 21/30/5
f 27/31/6 28/32/6 29/33/6
f 29/30/7 30/34/7 19/35/7
f 31/36/8 32/37/8 33/38/8
f 34/39/9 35/40/9 36/41/9
f 37/42/10 14/43/10 13/44/10
f 38/45/10 39/46/10 40/47/10
f 41/48/3 42/49/3 43/50/3
f 33/51/3 32/52/3 44/53/3
f 45/54/3 46/55/3 47/56/3
f 48/57/3 49/58/3 50/59/3
f 51/60/3 52/61/3 53/62/3
f 54/63/3 55/64/3 56/65/3
f 57/66/3 58/67/3 59/68/3
f 60/69/3 61/70/3 62/71/3
f 63/72/3 11/73/3 16/74/3
f 64/75/3 65/76/3 66/77/3
f 67/78/10 68/79/10 69/80/10
f 70/81/3 18/82/3 1/83/3
f 71/84/3 72/85/3 73/86/3
f 74/87/3 75/88/3 76/89/3
f 77/90/3 76/89/3 72/85/3
f 44/53/3 77/90/3 71/84/3
f 32/52/3 74/87/3 77/90/3
f 78/91/10 79/92/10 80/93/10
f 46/55/3 71/84/3 81/94/3
f 82/95/10 7/96/10 6/97/10
f 36/98/10 35/99/10 83/100/10
f 72/85/3 70/81/3 84/101/3
f 85/102/3 86/103/3 65/76/3
f 43/50/3 85/102/3 64/75/3
f 87/104/10 88/105/10 89/106/10
f 90/107/3 66/77/3 91/108/3
f 56/65/3 90/107/3 92/109/3
f 55/64/3 64/75/3 90/107/3
f 93/110/3 16/74/3 15/43/3
f 66/77/3 93/110/3 94/42/3
f 65/76/3 63/72/3 93/110/3
f 95/111/3 62/71/3 58/67/3
f 26/112/3 95/111/3 57/66/3
f 25/113/3 60/69/3 95/111/3
f 96/114/3 59/68/3 97/115/3
f 98/116/3 96/114/3 99/117/3
f 100/118/3 57/66/3 96/114/3
f 101/119/3 56/65/3 102/99/3
f 59/68/3 101/119/3 34/98/3
f 58/67/3 54/63/3 101/119/3
f 103/120/3 53/62/3 49/58/3
f 104/121/3 103/120/3 48/57/3
f 24/122/3 51/60/3 103/120/3
f 105/123/3 50/59/3 61/70/3
f 106/124/3 105/123/3 60/69/3
f 107/125/3 48/57/3 105/123/3
f 108/126/3 47/56/3 42/49/3
f 50/59/3 108/126/3 41/48/3
f 49/58/3 45/54/3 108/126/3
f 109/127/3 44/53/3 46/55/3
f 53/62/3 109/127/3 45/54/3
f 52/61/3 33/51/3 109/127/3
f 110/128/3 43/50/3 55/64/3
f 62/71/3 110/128/3 54/63/3
f 61/70/3 41/48/3 110/128/3
f 111/129/3 17/130/3 11/73/3
f 86/103/3 111/129/3 63/72/3
f 112/131/3 8/24/3 18/82/3
f 76/89/3 112/131/3 70/81/3
f 75/88/3 22/22/3 112/131/3
f 113/132/10 114/133/10 115/134/10
f 116/135/10 117/136/10 118/137/10
f 119/138/10 120/139/10 121/140/10
f 122/117/10 123/115/10 124/141/10
f 125/142/10 12/143/10 10/144/10
f 126/145/10 127/146/10 128/147/10
f 129/109/10 130/108/10 131/148/10
f 132/149/10 131/148/10 127/146/10
f 83/100/10 132/149/10 126/145/10
f 35/99/10 129/109/10 132/149/10
f 117/136/10 126/145/10 133/150/10
f 127/146/10 125/142/10 134/151/10
f 135/152/10 124/141/10 120/139/10
f 136/153/10 135/152/10 119/138/10
f 28/154/10 122/117/10 135/152/10
f 137/155/10 121/140/10 114/133/10
f 138/156/10 137/155/10 113/132/10
f 139/157/10 119/138/10 137/155/10
f 140/158/10 118/137/10 88/105/10
f 121/140/10 140/158/10 87/104/10
f 120/139/10 116/135/10 140/158/10
f 141/159/10 115/134/10 39/46/10
f 142/160/10 141/159/10 38/45/10
f 30/161/10 113/132/10 141/159/10
f 143/162/10 9/163/10 7/96/10
f 144/164/10 143/162/10 82/95/10
f 145/165/10 89/106/10 68/79/10
f 115/134/10 145/165/10 67/78/10
f 114/133/10 87/104/10 145/165/10
f 146/166/10 83/100/10 117/136/10
f 124/141/10 146/166/10 116/135/10
f 123/115/10 36/98/10 146/166/10
f 147/167/10 6/97/10 5/35/10
f 80/93/10 147/167/10 148/168/10
f 79/92/10 82/95/10 147/167/10
f 149/169/10 80/93/10 150/170/10
f 69/80/10 149/169/10 151/171/10
f 68/79/10 78/91/10 149/169/10
f 152/172/10 144/164/10 79/92/10
f 89/106/10 152/172/10 78/91/10
f 153/173/10 69/80/10 154/174/10
f 40/47/10 153/173/10 31/175/10
f 39/46/10 67/78/10 153/173/10
f 155/176/10 40/47/10 156/177/10
f 157/178/10 155/176/10 158/179/10
f 159/180/10 38/45/10 155/176/10
f 160/181/10 13/44/10 12/143/10
f 131/148/10 160/181/10 125/142/10
f 130/108/10 37/42/10 160/181/10
f 29/182/2 19/19/2 21/21/2
f 112/131/3 22/22/3 8/24/3
f 19/183/4 23/25/4 20/27/4
f 21/30/5 20/184/5 25/28/5
f 104/185/5 107/186/5 20/184/5
f 20/184/5 24/187/5 104/185/5
f 98/188/5 27/189/5 21/30/5
f 26/29/5 100/190/5 21/30/5
f 106/191/5 25/28/5 20/184/5
f 20/184/5 107/186/5 106/191/5
f 100/190/5 98/188/5 21/30/5
f 21/27/6 27/31/6 29/33/6
f 157/192/7 23/193/7 19/35/7
f 19/35/7 30/34/7 142/194/7
f 28/195/7 136/196/7 29/30/7
f 139/197/7 138/198/7 29/30/7
f 142/194/7 159/199/7 19/35/7
f 138/198/7 30/34/7 29/30/7
f 29/30/7 136/196/7 139/197/7
f 159/199/7 157/192/7 19/35/7
f 51/200/8 24/201/8 23/202/8
f 23/202/8 158/203/8 51/200/8
f 156/204/8 31/36/8 33/38/8
f 154/205/8 151/206/8 74/207/8
f 150/208/8 148/209/8 22/210/8
f 5/211/8 4/212/8 22/210/8
f 22/210/8 75/213/8 150/208/8
f 74/207/8 32/37/8 154/205/8
f 33/38/8 52/214/8 156/204/8
f 51/200/8 158/203/8 156/204/8
f 31/36/8 154/205/8 32/37/8
f 148/209/8 5/211/8 22/210/8
f 75/213/8 74/207/8 151/206/8
f 52/214/8 51/200/8 156/204/8
f 151/206/8 150/208/8 75/213/8
f 122/215/9 28/216/9 27/217/9
f 27/217/9 99/218/9 122/215/9
f 97/219/9 34/39/9 36/41/9
f 102/220/9 92/221/9 129/222/9
f 91/223/9 94/224/9 37/225/9
f 15/212/9 14/211/9 37/225/9
f 37/225/9 130/226/9 91/223/9
f 129/222/9 35/40/9 102/220/9
f 36/41/9 123/227/9 97/219/9
f 122/215/9 99/218/9 97/219/9
f 34/39/9 102/220/9 35/40/9
f 94/224/9 15/212/9 37/225/9
f 130/226/9 129/222/9 92/221/9
f 123/227/9 122/215/9 97/219/9
f 92/221/9 91/223/9 130/226/9
f 160/181/10 37/42/10 13/44/10
f 155/176/10 38/45/10 40/47/10
f 110/128/3 41/48/3 43/50/3
f 109/127/3 33/51/3 44/53/3
f 108/126/3 45/54/3 47/56/3
f 105/123/3 48/57/3 50/59/3
f 103/120/3 51/60/3 53/62/3
f 101/119/3 54/63/3 56/65/3
f 96/114/3 57/66/3 59/68/3
f 95/111/3 60/69/3 62/71/3
f 93/110/3 63/72/3 16/74/3
f 90/107/3 64/75/3 66/77/3
f 153/173/10 67/78/10 69/80/10
f 84/101/3 70/81/3 1/83/3
f 81/94/3 71/84/3 73/86/3
f 77/90/3 74/87/3 76/89/3
f 71/84/3 77/90/3 72/85/3
f 46/55/3 44/53/3 71/84/3
f 44/53/3 32/52/3 77/90/3
f 149/169/10 78/91/10 80/93/10
f 47/56/3 46/55/3 81/94/3
f 147/167/10 82/95/10 6/97/10
f 146/166/10 36/98/10 83/100/10
f 73/86/3 72/85/3 84/101/3
f 64/75/3 85/102/3 65/76/3
f 55/64/3 43/50/3 64/75/3
f 145/165/10 87/104/10 89/106/10
f 92/109/3 90/107/3 91/108/3
f 102/99/3 56/65/3 92/109/3
f 56/65/3 55/64/3 90/107/3
f 94/42/3 93/110/3 15/43/3
f 91/108/3 66/77/3 94/42/3
f 66/77/3 65/76/3 93/110/3
f 57/66/3 95/111/3 58/67/3
f 100/118/3 26/112/3 57/66/3
f 26/112/3 25/113/3 95/111/3
f 99/117/3 96/114/3 97/115/3
f 27/154/3 98/116/3 99/117/3
f 98/116/3 100/118/3 96/114/3
f 34/98/3 101/119/3 102/99/3
f 97/115/3 59/68/3 34/98/3
f 59/68/3 58/67/3 101/119/3
f 48/57/3 103/120/3 49/58/3
f 107/125/3 104/121/3 48/57/3
f 104/121/3 24/122/3 103/120/3
f 60/69/3 105/123/3 61/70/3
f 25/113/3 106/124/3 60/69/3
f 106/124/3 107/125/3 105/123/3
f 41/48/3 108/126/3 42/49/3
f 61/70/3 50/59/3 41/48/3
f 50/59/3 49/58/3 108/126/3
f 45/54/3 109/127/3 46/55/3
f 49/58/3 53/62/3 45/54/3
f 53/62/3 52/61/3 109/127/3
f 54/63/3 110/128/3 55/64/3
f 58/67/3 62/71/3 54/63/3
f 62/71/3 61/70/3 110/128/3
f 63/72/3 111/129/3 11/73/3
f 65/76/3 86/103/3 63/72/3
f 70/81/3 112/131/3 18/82/3
f 72/85/3 76/89/3 70/81/3
f 76/89/3 75/88/3 112/131/3
f 141/159/10 113/132/10 115/134/10
f 140/158/10 116/135/10 118/137/10
f 137/155/10 119/138/10 121/140/10
f 135/152/10 122/117/10 124/141/10
f 134/151/10 125/142/10 10/144/10
f 133/150/10 126/145/10 128/147/10
f 132/149/10 129/109/10 131/148/10
f 126/145/10 132/149/10 127/146/10
f 117/136/10 83/100/10 126/145/10
f 83/100/10 35/99/10 132/149/10
f 118/137/10 117/136/10 133/150/10
f 128/147/10 127/146/10 134/151/10
f 119/138/10 135/152/10 120/139/10
f 139/157/10 136/153/10 119/138/10
f 136/153/10 28/154/10 135/152/10
f 113/132/10 137/155/10 114/133/10
f 30/161/10 138/156/10 113/132/10
f 138/156/10 139/157/10 137/155/10
f 87/104/10 140/158/10 88/105/10
f 114/133/10 121/140/10 87/104/10
f 121/140/10 120/139/10 140/158/10
f 38/45/10 141/159/10 39/46/10
f 159/180/10 142/160/10 38/45/10
f 142/160/10 30/161/10 141/159/10
f 82/95/10 143/162/10 7/96/10
f 79/92/10 144/164/10 82/95/10
f 67/78/10 145/165/10 68/79/10
f 39/46/10 115/134/10 67/78/10
f 115/134/10 114/133/10 145/165/10
f 116/135/10 146/166/10 117/136/10
f 120/139/10 124/141/10 116/135/10
f 124/141/10 123/115/10 146/166/10
f 148/168/10 147/167/10 5/35/10
f 150/170/10 80/93/10 148/168/10
f 80/93/10 79/92/10 147/167/10
f 151/171/10 149/169/10 150/170/10
f 154/174/10 69/80/10 151/171/10
f 69/80/10 68/79/10 149/169/10
f 78/91/10 152/172/10 79/92/10
f 68/79/10 89/106/10 78/91/10
f 31/175/10 153/173/10 154/174/10
f 156/177/10 40/47/10 31/175/10
f 40/47/10 39/46/10 153/173/10
f 158/179/10 155/176/10 156/177/10
f 23/228/10 157/178/10 158/179/10
f 157/178/10 159/180/10 155/176/10
f 125/142/10 160/181/10 12/143/10
f 127/146/10 131/148/10 125/142/10
f 131/148/10 130/108/10 160/181/10
