# Blender v2.76 (sub 0) OBJ File: ''
# www.blender.org
o Cube.001
v 3.128051 -0.374543 -6.198623
v 3.128051 -0.374545 6.198623
v -3.128051 -0.374545 6.198622
v -3.128049 -0.374543 -6.198626
v 2.031319 -0.185582 5.367091
v 2.708426 -0.185582 5.367091
v 2.708426 -0.265599 5.367091
v 2.031319 -0.265599 5.367091
v 2.708429 0.374545 -5.367085
v 2.708426 0.374543 5.367091
v 2.031319 0.374543 5.367091
v 1.354212 0.374543 5.367090
v 0.677105 0.374543 5.367090
v -0.000001 0.374543 5.367089
v -0.677108 0.374543 5.367088
v -1.354215 0.374543 5.367087
v -2.031322 0.374543 5.367086
v -2.708428 0.374543 5.367086
v -2.708427 0.374545 -5.367088
v -2.031320 0.374545 -5.367087
v -1.354213 0.374545 -5.367087
v -0.677106 0.374545 -5.367086
v 0.000001 0.374545 -5.367086
v 0.677108 0.374545 -5.367086
v 1.354215 0.374545 -5.367085
v 2.031322 0.374545 -5.367085
v 2.708429 -0.265597 -5.367085
v 2.031322 -0.265597 -5.367085
v 1.354215 -0.265597 -5.367085
v 0.677108 -0.265597 -5.367086
v 0.000001 -0.265597 -5.367086
v -0.677106 -0.265597 -5.367086
v -1.354213 -0.265597 -5.367087
v -2.031320 -0.265597 -5.367087
v -2.708427 -0.265597 -5.367088
v -2.708428 -0.265599 5.367086
v -2.031322 -0.265599 5.367086
v -1.354215 -0.265599 5.367087
v -0.677108 -0.265599 5.367088
v -0.000001 -0.265599 5.367089
v 0.677105 -0.265599 5.367090
v 1.354212 -0.265599 5.367090
v 2.708429 0.294527 -5.367085
v 2.708429 0.214509 -5.367085
v 2.708429 0.134491 -5.367085
v 2.708429 0.054474 -5.367085
v 2.708429 -0.025544 -5.367085
v 2.708429 -0.105562 -5.367085
v 2.708429 -0.185580 -5.367085
v 2.708426 -0.105564 5.367091
v 2.708426 -0.025546 5.367091
v 2.708426 0.054472 5.367091
v 2.708426 0.134489 5.367091
v 2.708426 0.214507 5.367091
v 2.708426 0.294525 5.367091
v -2.708428 0.294525 5.367086
v -2.708428 0.214507 5.367086
v -2.708428 0.134489 5.367086
v -2.708428 0.054472 5.367086
v -2.708428 -0.025546 5.367086
v -2.708428 -0.105564 5.367086
v -2.708428 -0.185582 5.367086
v -2.708427 -0.185580 -5.367088
v -2.708427 -0.105562 -5.367088
v -2.708427 -0.025544 -5.367088
v -2.708427 0.054474 -5.367088
v -2.708427 0.134491 -5.367088
v -2.708427 0.214509 -5.367088
v -2.708427 0.294527 -5.367088
v -2.031320 -0.185580 -5.367087
v 2.031322 0.294527 -5.367085
v 1.354215 0.294527 -5.367085
v 1.354215 0.214509 -5.367085
v 2.031322 0.214509 -5.367085
v -0.677108 0.134489 5.367088
v -0.000001 0.134489 5.367089
v -0.000001 0.054472 5.367089
v -0.677108 0.054472 5.367088
v 2.031319 0.134489 5.367091
v 2.031319 0.054472 5.367091
v 0.677105 0.134489 5.367090
v 1.354212 0.134489 5.367090
v 1.354212 0.054472 5.367090
v 0.677105 0.054472 5.367090
v 0.677105 0.294525 5.367090
v 1.354212 0.294525 5.367090
v 1.354212 0.214507 5.367090
v 0.677105 0.214507 5.367090
v 2.031319 0.294525 5.367091
v 2.031319 0.214507 5.367091
v -2.031322 0.134489 5.367086
v -1.354215 0.134489 5.367087
v -1.354215 0.054472 5.367087
v -2.031322 0.054472 5.367086
v -2.031322 0.294525 5.367086
v -1.354215 0.294525 5.367087
v -1.354215 0.214507 5.367087
v -2.031322 0.214507 5.367086
v -0.677108 0.294525 5.367088
v -0.000001 0.294525 5.367089
v -0.000001 0.214507 5.367089
v -0.677108 0.214507 5.367088
v -2.031322 -0.185582 5.367086
v -1.354215 -0.185582 5.367087
v -2.031322 -0.025546 5.367086
v -1.354215 -0.025546 5.367087
v -1.354215 -0.105564 5.367087
v -2.031322 -0.105564 5.367086
v 2.031322 0.134491 -5.367085
v 1.354215 0.134491 -5.367085
v 1.354215 0.054474 -5.367085
v 2.031322 0.054474 -5.367085
v 0.677105 -0.185582 5.367090
v 1.354212 -0.185582 5.367090
v 0.677105 -0.025546 5.367090
v 1.354212 -0.025546 5.367090
v 1.354212 -0.105564 5.367090
v 0.677105 -0.105564 5.367090
v 2.031319 -0.025546 5.367091
v 2.031319 -0.105564 5.367091
v 2.031322 -0.025544 -5.367085
v 1.354215 -0.025544 -5.367085
v 1.354215 -0.105562 -5.367085
v 2.031322 -0.105562 -5.367085
v 2.031322 -0.185580 -5.367085
v 1.354215 -0.185580 -5.367085
v -2.031320 0.134491 -5.367087
v -2.031320 0.054474 -5.367087
v -0.677108 -0.025546 5.367088
v -0.677108 -0.105564 5.367088
v 0.677108 0.134491 -5.367086
v 0.000001 0.134491 -5.367086
v 0.000001 0.054474 -5.367086
v 0.677108 0.054474 -5.367086
v -0.677108 -0.185582 5.367088
v 0.677108 0.294527 -5.367086
v 0.000001 0.294527 -5.367086
v 0.000001 0.214509 -5.367086
v 0.677108 0.214509 -5.367086
v -0.677106 0.134491 -5.367086
v -1.354213 0.134491 -5.367087
v -1.354213 0.054474 -5.367087
v -0.677106 0.054474 -5.367086
v -0.677106 0.294527 -5.367086
v -1.354213 0.294527 -5.367087
v -1.354213 0.214509 -5.367087
v -0.677106 0.214509 -5.367086
v -2.031320 0.294527 -5.367087
v -2.031320 0.214509 -5.367087
v -0.677106 -0.185580 -5.367086
v -1.354213 -0.185580 -5.367087
v -0.677106 -0.025544 -5.367086
v -1.354213 -0.025544 -5.367087
v -1.354213 -0.105562 -5.367087
v -0.677106 -0.105562 -5.367086
v -2.031320 -0.025544 -5.367087
v -2.031320 -0.105562 -5.367087
v 0.677108 -0.185580 -5.367086
v 0.677108 -0.105562 -5.367086
v 0.677108 -0.025544 -5.367086
vt 0.368219 0.969181
vt 0.487896 0.010523
vt 0.487862 0.969185
vt 0.009290 0.969168
vt 0.008848 0.010506
vt 0.128611 0.010510
vt 0.248372 0.010515
vt 0.128933 0.969172
vt 0.368134 0.010519
vt 0.607658 0.010527
vt 0.727148 0.969193
vt 0.727420 0.010531
vt 0.847183 0.010536
vt 0.966944 0.010540
vt 0.966433 0.969202
vt 0.846790 0.969198
vt 0.607505 0.969189
vt 0.248577 0.969177
vt 0.000000 0.000000
vn -0.000000 1.000000 0.000000
vn 0.000000 -1.000000 -0.000000
vn 0.000000 0.000000 -1.000000
vn 0.872400 0.488700 0.000000
vn -0.000000 0.743000 0.669300
vn -0.872400 0.488700 -0.000000
vn 0.000000 0.743000 -0.669300
vn -1.000000 0.000000 -0.000000
vn 1.000000 0.000000 0.000000
vn -0.000000 0.000000 1.000000
s 1
f 41/1/1 31/2/1 40/3/1
f 7/4/1 27/5/1 28/6/1
f 29/7/1 8/8/1 28/6/1
f 7/4/1 28/6/1 8/8/1
f 30/9/1 31/2/1 41/1/1
f 40/3/1 31/2/1 32/10/1
f 38/11/1 33/12/1 34/13/1
f 35/14/1 36/15/1 37/16/1
f 37/16/1 38/11/1 34/13/1
f 32/10/1 33/12/1 39/17/1
f 29/7/1 42/18/1 8/8/1
f 32/10/1 39/17/1 40/3/1
f 30/9/1 42/18/1 29/7/1
f 39/17/1 33/12/1 38/11/1
f 34/13/1 35/14/1 37/16/1
f 41/1/1 42/18/1 30/9/1
f 1/19/2 2/19/2 3/19/2
f 6/19/3 7/19/3 8/19/3
f 9/19/4 10/19/4 2/19/4
f 14/19/5 15/19/5 3/19/5
f 18/19/6 19/19/6 4/19/6
f 4/19/7 23/19/7 1/19/7
f 45/19/8 52/19/8 53/19/8
f 58/19/9 66/19/9 67/19/9
f 63/19/10 35/19/10 34/19/10
f 72/19/10 73/19/10 74/19/10
f 76/19/3 77/19/3 78/19/3
f 53/19/3 52/19/3 80/19/3
f 82/19/3 83/19/3 84/19/3
f 86/19/3 87/19/3 88/19/3
f 55/19/3 54/19/3 90/19/3
f 92/19/3 93/19/3 94/19/3
f 96/19/3 97/19/3 98/19/3
f 100/19/3 101/19/3 102/19/3
f 104/19/3 38/19/3 37/19/3
f 106/19/3 107/19/3 108/19/3
f 110/19/10 111/19/10 112/19/10
f 114/19/3 42/19/3 41/19/3
f 116/19/3 117/19/3 118/19/3
f 51/19/3 50/19/3 120/19/3
f 119/19/3 120/19/3 117/19/3
f 80/19/3 119/19/3 116/19/3
f 52/19/3 51/19/3 119/19/3
f 122/19/10 123/19/10 124/19/10
f 83/19/3 116/19/3 115/19/3
f 126/19/10 29/19/10 28/19/10
f 67/19/10 66/19/10 128/19/10
f 117/19/3 114/19/3 113/19/3
f 129/19/3 130/19/3 107/19/3
f 78/19/3 129/19/3 106/19/3
f 132/19/10 133/19/10 134/19/10
f 105/19/3 108/19/3 61/19/3
f 94/19/3 105/19/3 60/19/3
f 93/19/3 106/19/3 105/19/3
f 103/19/3 37/19/3 36/19/3
f 108/19/3 103/19/3 62/19/3
f 107/19/3 104/19/3 103/19/3
f 99/19/3 102/19/3 97/19/3
f 15/19/3 99/19/3 96/19/3
f 14/19/3 100/19/3 99/19/3
f 95/19/3 98/19/3 57/19/3
f 17/19/3 95/19/3 56/19/3
f 16/19/3 96/19/3 95/19/3
f 91/19/3 94/19/3 59/19/3
f 98/19/3 91/19/3 58/19/3
f 97/19/3 92/19/3 91/19/3
f 89/19/3 90/19/3 87/19/3
f 11/19/3 89/19/3 86/19/3
f 10/19/3 55/19/3 89/19/3
f 85/19/3 88/19/3 101/19/3
f 13/19/3 85/19/3 100/19/3
f 12/19/3 86/19/3 85/19/3
f 81/19/3 84/19/3 77/19/3
f 88/19/3 81/19/3 76/19/3
f 87/19/3 82/19/3 81/19/3
f 79/19/3 80/19/3 83/19/3
f 90/19/3 79/19/3 82/19/3
f 54/19/3 53/19/3 79/19/3
f 75/19/3 78/19/3 93/19/3
f 102/19/3 75/19/3 92/19/3
f 101/19/3 76/19/3 75/19/3
f 135/19/3 39/19/3 38/19/3
f 130/19/3 135/19/3 104/19/3
f 5/19/3 8/19/3 42/19/3
f 120/19/3 5/19/3 114/19/3
f 50/19/3 6/19/3 5/19/3
f 137/19/10 138/19/10 139/19/10
f 141/19/10 142/19/10 143/19/10
f 145/19/10 146/19/10 147/19/10
f 69/19/10 68/19/10 149/19/10
f 151/19/10 33/19/10 32/19/10
f 153/19/10 154/19/10 155/19/10
f 65/19/10 64/19/10 157/19/10
f 156/19/10 157/19/10 154/19/10
f 128/19/10 156/19/10 153/19/10
f 66/19/10 65/19/10 156/19/10
f 142/19/10 153/19/10 152/19/10
f 154/19/10 151/19/10 150/19/10
f 148/19/10 149/19/10 146/19/10
f 20/19/10 148/19/10 145/19/10
f 19/19/10 69/19/10 148/19/10
f 144/19/10 147/19/10 138/19/10
f 22/19/10 144/19/10 137/19/10
f 21/19/10 145/19/10 144/19/10
f 140/19/10 143/19/10 133/19/10
f 147/19/10 140/19/10 132/19/10
f 146/19/10 141/19/10 140/19/10
f 136/19/10 139/19/10 73/19/10
f 24/19/10 136/19/10 72/19/10
f 23/19/10 137/19/10 136/19/10
f 158/19/10 30/19/10 29/19/10
f 159/19/10 158/19/10 126/19/10
f 131/19/10 134/19/10 111/19/10
f 139/19/10 131/19/10 110/19/10
f 138/19/10 132/19/10 131/19/10
f 127/19/10 128/19/10 142/19/10
f 149/19/10 127/19/10 141/19/10
f 68/19/10 67/19/10 127/19/10
f 125/19/10 28/19/10 27/19/10
f 124/19/10 125/19/10 49/19/10
f 123/19/10 126/19/10 125/19/10
f 121/19/10 124/19/10 48/19/10
f 112/19/10 121/19/10 47/19/10
f 111/19/10 122/19/10 121/19/10
f 160/19/10 159/19/10 123/19/10
f 134/19/10 160/19/10 122/19/10
f 109/19/10 112/19/10 46/19/10
f 74/19/10 109/19/10 45/19/10
f 73/19/10 110/19/10 109/19/10
f 71/19/10 74/19/10 44/19/10
f 26/19/10 71/19/10 43/19/10
f 25/19/10 72/19/10 71/19/10
f 70/19/10 34/19/10 33/19/10
f 157/19/10 70/19/10 151/19/10
f 64/19/10 63/19/10 70/19/10
f 4/19/2 1/19/2 3/19/2
f 5/19/3 6/19/3 8/19/3
f 1/19/4 9/19/4 2/19/4
f 3/19/5 2/19/5 14/19/5
f 11/19/5 12/19/5 2/19/5
f 2/19/5 10/19/5 11/19/5
f 17/19/5 18/19/5 3/19/5
f 15/19/5 16/19/5 3/19/5
f 13/19/5 14/19/5 2/19/5
f 2/19/5 12/19/5 13/19/5
f 16/19/5 17/19/5 3/19/5
f 3/19/6 18/19/6 4/19/6
f 26/19/7 9/19/7 1/19/7
f 1/19/7 23/19/7 24/19/7
f 19/19/7 20/19/7 4/19/7
f 21/19/7 22/19/7 4/19/7
f 24/19/7 25/19/7 1/19/7
f 22/19/7 23/19/7 4/19/7
f 4/19/7 20/19/7 21/19/7
f 25/19/7 26/19/7 1/19/7
f 55/19/8 10/19/8 9/19/8
f 9/19/8 43/19/8 55/19/8
f 44/19/8 45/19/8 53/19/8
f 46/19/8 47/19/8 51/19/8
f 48/19/8 49/19/8 6/19/8
f 27/19/8 7/19/8 6/19/8
f 6/19/8 50/19/8 48/19/8
f 51/19/8 52/19/8 46/19/8
f 53/19/8 54/19/8 44/19/8
f 55/19/8 43/19/8 44/19/8
f 45/19/8 46/19/8 52/19/8
f 49/19/8 27/19/8 6/19/8
f 50/19/8 51/19/8 47/19/8
f 54/19/8 55/19/8 44/19/8
f 47/19/8 48/19/8 50/19/8
f 69/19/9 19/19/9 18/19/9
f 18/19/9 56/19/9 69/19/9
f 57/19/9 58/19/9 67/19/9
f 59/19/9 60/19/9 65/19/9
f 61/19/9 62/19/9 63/19/9
f 36/19/9 35/19/9 63/19/9
f 63/19/9 64/19/9 61/19/9
f 65/19/9 66/19/9 59/19/9
f 67/19/9 68/19/9 57/19/9
f 69/19/9 56/19/9 57/19/9
f 58/19/9 59/19/9 66/19/9
f 62/19/9 36/19/9 63/19/9
f 64/19/9 65/19/9 60/19/9
f 68/19/9 69/19/9 57/19/9
f 60/19/9 61/19/9 64/19/9
f 70/19/10 63/19/10 34/19/10
f 71/19/10 72/19/10 74/19/10
f 75/19/3 76/19/3 78/19/3
f 79/19/3 53/19/3 80/19/3
f 81/19/3 82/19/3 84/19/3
f 85/19/3 86/19/3 88/19/3
f 89/19/3 55/19/3 90/19/3
f 91/19/3 92/19/3 94/19/3
f 95/19/3 96/19/3 98/19/3
f 99/19/3 100/19/3 102/19/3
f 103/19/3 104/19/3 37/19/3
f 105/19/3 106/19/3 108/19/3
f 109/19/10 110/19/10 112/19/10
f 113/19/3 114/19/3 41/19/3
f 115/19/3 116/19/3 118/19/3
f 119/19/3 51/19/3 120/19/3
f 116/19/3 119/19/3 117/19/3
f 83/19/3 80/19/3 116/19/3
f 80/19/3 52/19/3 119/19/3
f 121/19/10 122/19/10 124/19/10
f 84/19/3 83/19/3 115/19/3
f 125/19/10 126/19/10 28/19/10
f 127/19/10 67/19/10 128/19/10
f 118/19/3 117/19/3 113/19/3
f 106/19/3 129/19/3 107/19/3
f 93/19/3 78/19/3 106/19/3
f 131/19/10 132/19/10 134/19/10
f 60/19/3 105/19/3 61/19/3
f 59/19/3 94/19/3 60/19/3
f 94/19/3 93/19/3 105/19/3
f 62/19/3 103/19/3 36/19/3
f 61/19/3 108/19/3 62/19/3
f 108/19/3 107/19/3 103/19/3
f 96/19/3 99/19/3 97/19/3
f 16/19/3 15/19/3 96/19/3
f 15/19/3 14/19/3 99/19/3
f 56/19/3 95/19/3 57/19/3
f 18/19/3 17/19/3 56/19/3
f 17/19/3 16/19/3 95/19/3
f 58/19/3 91/19/3 59/19/3
f 57/19/3 98/19/3 58/19/3
f 98/19/3 97/19/3 91/19/3
f 86/19/3 89/19/3 87/19/3
f 12/19/3 11/19/3 86/19/3
f 11/19/3 10/19/3 89/19/3
f 100/19/3 85/19/3 101/19/3
f 14/19/3 13/19/3 100/19/3
f 13/19/3 12/19/3 85/19/3
f 76/19/3 81/19/3 77/19/3
f 101/19/3 88/19/3 76/19/3
f 88/19/3 87/19/3 81/19/3
f 82/19/3 79/19/3 83/19/3
f 87/19/3 90/19/3 82/19/3
f 90/19/3 54/19/3 79/19/3
f 92/19/3 75/19/3 93/19/3
f 97/19/3 102/19/3 92/19/3
f 102/19/3 101/19/3 75/19/3
f 104/19/3 135/19/3 38/19/3
f 107/19/3 130/19/3 104/19/3
f 114/19/3 5/19/3 42/19/3
f 117/19/3 120/19/3 114/19/3
f 120/19/3 50/19/3 5/19/3
f 136/19/10 137/19/10 139/19/10
f 140/19/10 141/19/10 143/19/10
f 144/19/10 145/19/10 147/19/10
f 148/19/10 69/19/10 149/19/10
f 150/19/10 151/19/10 32/19/10
f 152/19/10 153/19/10 155/19/10
f 156/19/10 65/19/10 157/19/10
f 153/19/10 156/19/10 154/19/10
f 142/19/10 128/19/10 153/19/10
f 128/19/10 66/19/10 156/19/10
f 143/19/10 142/19/10 152/19/10
f 155/19/10 154/19/10 150/19/10
f 145/19/10 148/19/10 146/19/10
f 21/19/10 20/19/10 145/19/10
f 20/19/10 19/19/10 148/19/10
f 137/19/10 144/19/10 138/19/10
f 23/19/10 22/19/10 137/19/10
f 22/19/10 21/19/10 144/19/10
f 132/19/10 140/19/10 133/19/10
f 138/19/10 147/19/10 132/19/10
f 147/19/10 146/19/10 140/19/10
f 72/19/10 136/19/10 73/19/10
f 25/19/10 24/19/10 72/19/10
f 24/19/10 23/19/10 136/19/10
f 126/19/10 158/19/10 29/19/10
f 123/19/10 159/19/10 126/19/10
f 110/19/10 131/19/10 111/19/10
f 73/19/10 139/19/10 110/19/10
f 139/19/10 138/19/10 131/19/10
f 141/19/10 127/19/10 142/19/10
f 146/19/10 149/19/10 141/19/10
f 149/19/10 68/19/10 127/19/10
f 49/19/10 125/19/10 27/19/10
f 48/19/10 124/19/10 49/19/10
f 124/19/10 123/19/10 125/19/10
f 47/19/10 121/19/10 48/19/10
f 46/19/10 112/19/10 47/19/10
f 112/19/10 111/19/10 121/19/10
f 122/19/10 160/19/10 123/19/10
f 111/19/10 134/19/10 122/19/10
f 45/19/10 109/19/10 46/19/10
f 44/19/10 74/19/10 45/19/10
f 74/19/10 73/19/10 109/19/10
f 43/19/10 71/19/10 44/19/10
f 9/19/10 26/19/10 43/19/10
f 26/19/10 25/19/10 71/19/10
f 151/19/10 70/19/10 33/19/10
f 154/19/10 157/19/10 151/19/10
f 157/19/10 64/19/10 70/19/10
