# Blender v2.76 (sub 0) OBJ File: 'maze.blend'
# www.blender.org
o LABIRINTO.001
v -16.078354 -6.903193 11.917237
v -13.435602 -6.562354 9.926477
v -16.078354 -6.903192 -12.126729
v -13.435602 -6.562353 -10.135967
v 15.840210 -6.903193 11.917237
v 13.197458 -6.562354 9.926477
v 15.840210 -6.903192 -12.126729
v 13.197458 -6.562353 -10.135967
v -16.078354 1.486516 11.917238
v -16.078354 1.486515 -12.126728
v 15.840210 1.486515 -12.126728
v 15.840210 1.486516 11.917238
v -14.625441 1.486516 10.822773
v -14.625441 1.486515 -11.032263
v 14.387299 1.486515 -11.032263
v 14.387299 1.486516 10.822773
vt 0.762720 0.500000
vt 0.883179 0.500000
vt 0.883179 0.876646
vt 0.812907 0.500000
vt 0.692308 0.500000
vt 0.692308 0.000000
vt 0.762720 0.876646
vt 0.642260 0.876646
vt 0.642260 0.500000
vt 0.000000 0.500000
vt 0.000000 0.000000
vt 0.346154 0.000000
vt 0.288833 0.500000
vt 0.288833 0.917203
vt 0.000000 0.917204
vt 0.361911 0.022760
vt 0.361911 0.477240
vt 0.346154 0.500000
vt 0.676551 0.477240
vt 0.676551 0.022760
vt 0.812907 0.014040
vt 0.929728 0.000000
vt 0.929728 0.342356
vt 0.525846 0.518639
vt 0.642260 0.954481
vt 1.000000 0.828316
vt 0.883179 0.842356
vt 0.409432 0.935842
vt 0.409432 0.518639
vt 0.525846 0.500000
vt 0.409432 0.500000
vt 0.409432 1.000000
vt 0.812907 0.000000
vt 0.812907 0.328316
vt 0.525846 0.935842
vt 1.000000 0.514040
vt 0.525846 0.954481
vt 0.288833 1.000000
vn -1.000000 0.000000 0.000000
vn 0.000000 0.000000 -1.000000
vn 1.000000 -0.000000 0.000000
vn 0.000000 -1.000000 -0.000000
vn 0.000000 1.000000 0.000000
vn 0.989200 0.146200 -0.000000
vn 0.000000 0.110700 0.993900
vn -0.989200 0.146200 -0.000000
vn 0.000000 0.110700 -0.993900
vn 0.000000 -0.000000 1.000000
s off
f 10/1/1 3/2/1 1/3/1
f 11/4/2 7/5/2 3/6/2
f 12/7/3 5/8/3 7/9/3
f 3/10/4 7/11/4 5/12/4
f 8/13/5 4/14/5 2/15/5
f 14/16/5 10/12/5 9/6/5
f 15/17/5 11/18/5 10/12/5
f 16/19/5 12/5/5 11/18/5
f 13/20/5 9/6/5 12/5/5
f 4/21/6 14/22/6 13/23/6
f 8/24/7 15/9/7 14/25/7
f 6/26/8 16/27/8 15/2/8
f 6/28/9 2/29/9 13/30/9
f 5/13/10 12/31/10 9/32/10
f 9/7/1 10/1/1 1/3/1
f 10/33/2 11/4/2 3/6/2
f 11/1/3 12/7/3 7/9/3
f 1/18/4 3/10/4 5/12/4
f 6/10/5 8/13/5 2/15/5
f 13/20/5 14/16/5 9/6/5
f 14/16/5 15/17/5 10/12/5
f 15/17/5 16/19/5 11/18/5
f 16/19/5 13/20/5 12/5/5
f 2/34/6 4/21/6 13/23/6
f 4/35/7 8/24/7 14/25/7
f 8/36/8 6/26/8 15/2/8
f 16/37/9 6/28/9 13/30/9
f 1/38/10 5/13/10 9/32/10
